<svg width="205" height="205" viewBox="0 0 205 205" fill="none" xmlns="http://www.w3.org/2000/svg">
<path d="M86.1089 154.876H151.466C151.785 154.876 152.102 154.939 152.397 155.062C152.692 155.184 152.961 155.363 153.187 155.589C153.413 155.815 153.592 156.084 153.715 156.379C153.837 156.674 153.9 156.991 153.9 157.311C153.9 157.63 153.837 157.947 153.715 158.242C153.592 158.538 153.413 158.806 153.187 159.032C152.961 159.258 152.692 159.437 152.397 159.56C152.102 159.682 151.785 159.745 151.466 159.745H86.1089C85.7893 159.745 85.4727 159.682 85.1773 159.56C84.882 159.437 84.6136 159.258 84.3876 159.032C84.1615 158.806 83.9822 158.538 83.8599 158.242C83.7375 157.947 83.6746 157.63 83.6746 157.311C83.6746 156.991 83.7375 156.674 83.8599 156.379C83.9822 156.084 84.1615 155.815 84.3876 155.589C84.6136 155.363 84.882 155.184 85.1773 155.062C85.4727 154.939 85.7893 154.876 86.1089 154.876V154.876ZM86.1089 163.751H132.96C133.28 163.751 133.597 163.814 133.892 163.937C134.187 164.059 134.456 164.238 134.682 164.464C134.908 164.691 135.087 164.959 135.209 165.254C135.332 165.55 135.395 165.866 135.395 166.186C135.395 166.506 135.332 166.822 135.209 167.117C135.087 167.413 134.908 167.681 134.682 167.907C134.456 168.133 134.187 168.313 133.892 168.435C133.597 168.557 133.28 168.62 132.96 168.62H86.1089C85.7893 168.62 85.4727 168.557 85.1773 168.435C84.882 168.313 84.6136 168.133 84.3876 167.907C84.1615 167.681 83.9822 167.413 83.8599 167.117C83.7375 166.822 83.6746 166.506 83.6746 166.186C83.6746 165.866 83.7375 165.55 83.8599 165.254C83.9822 164.959 84.1615 164.691 84.3876 164.464C84.6136 164.238 84.882 164.059 85.1773 163.937C85.4727 163.814 85.7893 163.751 86.1089 163.751V163.751Z" fill="#A6B6CC"/>
<path d="M86.1089 177.064H101.323C101.968 177.064 102.587 177.32 103.044 177.777C103.5 178.233 103.757 178.852 103.757 179.498C103.757 180.144 103.5 180.763 103.044 181.219C102.587 181.676 101.968 181.932 101.323 181.932H86.1089C85.4633 181.932 84.8441 181.676 84.3876 181.219C83.931 180.763 83.6746 180.144 83.6746 179.498C83.6746 178.852 83.931 178.233 84.3876 177.777C84.8441 177.32 85.4633 177.064 86.1089 177.064V177.064Z" fill="#D2DDEC"/>
<path d="M62.5313 173.9C68.8262 173.9 73.9293 168.814 73.9293 162.539C73.9293 156.265 68.8262 151.179 62.5313 151.179C56.2364 151.179 51.1333 156.265 51.1333 162.539C51.1333 168.814 56.2364 173.9 62.5313 173.9Z" fill="#A6B6CC"/>
<path fill-rule="evenodd" clip-rule="evenodd" d="M60.703 166.755C60.8057 166.858 60.9278 166.94 61.0624 166.996C61.197 167.052 61.3413 167.081 61.4871 167.081C61.6329 167.081 61.7773 167.052 61.9119 166.996C62.0464 166.94 62.1686 166.858 62.2713 166.755L67.8191 161.207C67.922 161.104 68.0037 160.981 68.0594 160.847C68.1151 160.712 68.1437 160.568 68.1437 160.422C68.1436 160.277 68.1149 160.132 68.0591 159.998C68.0032 159.863 67.9215 159.741 67.8184 159.638C67.7154 159.535 67.593 159.453 67.4584 159.398C67.3238 159.342 67.1795 159.313 67.0338 159.313C66.8882 159.313 66.7439 159.342 66.6093 159.398C66.4748 159.454 66.3525 159.536 66.2495 159.639L61.4871 164.401L58.9438 161.858C58.7325 161.667 58.456 161.565 58.1713 161.572C57.8867 161.579 57.6157 161.695 57.4143 161.896C57.2129 162.098 57.0964 162.369 57.089 162.653C57.0816 162.938 57.1837 163.214 57.3743 163.426L60.703 166.755V166.755Z" fill="#FFFDFF"/>
<path d="M86.1089 100.887H151.466C151.785 100.887 152.102 100.95 152.397 101.072C152.692 101.195 152.961 101.374 153.187 101.6C153.413 101.826 153.592 102.094 153.715 102.39C153.837 102.685 153.9 103.002 153.9 103.321C153.9 103.641 153.837 103.958 153.715 104.253C153.592 104.548 153.413 104.817 153.187 105.043C152.961 105.269 152.692 105.448 152.397 105.57C152.102 105.693 151.785 105.756 151.466 105.756H86.1089C85.7893 105.756 85.4727 105.693 85.1773 105.57C84.882 105.448 84.6136 105.269 84.3876 105.043C84.1615 104.817 83.9822 104.548 83.8599 104.253C83.7375 103.958 83.6746 103.641 83.6746 103.321C83.6746 103.002 83.7375 102.685 83.8599 102.39C83.9822 102.094 84.1615 101.826 84.3876 101.6C84.6136 101.374 84.882 101.195 85.1773 101.072C85.4727 100.95 85.7893 100.887 86.1089 100.887V100.887ZM86.1089 109.762H132.96C133.28 109.762 133.597 109.825 133.892 109.947C134.187 110.07 134.456 110.249 134.682 110.475C134.908 110.701 135.087 110.97 135.209 111.265C135.332 111.56 135.395 111.877 135.395 112.196C135.395 112.516 135.332 112.833 135.209 113.128C135.087 113.423 134.908 113.692 134.682 113.918C134.456 114.144 134.187 114.323 133.892 114.446C133.597 114.568 133.28 114.631 132.96 114.631H86.1089C85.7893 114.631 85.4727 114.568 85.1773 114.446C84.882 114.323 84.6136 114.144 84.3876 113.918C84.1615 113.692 83.9822 113.423 83.8599 113.128C83.7375 112.833 83.6746 112.516 83.6746 112.196C83.6746 111.877 83.7375 111.56 83.8599 111.265C83.9822 110.97 84.1615 110.701 84.3876 110.475C84.6136 110.249 84.882 110.07 85.1773 109.947C85.4727 109.825 85.7893 109.762 86.1089 109.762V109.762Z" fill="#A6B6CC"/>
<path d="M86.1089 123.074H101.323C101.968 123.074 102.587 123.331 103.044 123.787C103.5 124.244 103.757 124.863 103.757 125.509C103.757 126.154 103.5 126.773 103.044 127.23C102.587 127.687 101.968 127.943 101.323 127.943H86.1089C85.4633 127.943 84.8441 127.687 84.3876 127.23C83.931 126.773 83.6746 126.154 83.6746 125.509C83.6746 124.863 83.931 124.244 84.3876 123.787C84.8441 123.331 85.4633 123.074 86.1089 123.074V123.074Z" fill="#D2DDEC"/>
<path d="M62.5313 119.911C68.8262 119.911 73.9293 114.824 73.9293 108.55C73.9293 102.276 68.8262 97.1892 62.5313 97.1892C56.2364 97.1892 51.1333 102.276 51.1333 108.55C51.1333 114.824 56.2364 119.911 62.5313 119.911Z" fill="#A6B6CC"/>
<path fill-rule="evenodd" clip-rule="evenodd" d="M60.703 112.765C60.8057 112.869 60.9278 112.951 61.0624 113.007C61.197 113.063 61.3413 113.092 61.4871 113.092C61.6329 113.092 61.7773 113.063 61.9119 113.007C62.0464 112.951 62.1686 112.869 62.2713 112.765L67.8191 107.218C67.922 107.114 68.0037 106.992 68.0594 106.858C68.1151 106.723 68.1437 106.579 68.1437 106.433C68.1436 106.287 68.1149 106.143 68.0591 106.008C68.0032 105.874 67.9215 105.752 67.8184 105.649C67.7154 105.546 67.593 105.464 67.4584 105.408C67.3238 105.353 67.1795 105.324 67.0338 105.324C66.8882 105.324 66.7439 105.353 66.6093 105.409C66.4748 105.464 66.3525 105.546 66.2495 105.649L61.4871 110.412L58.9438 107.868C58.7325 107.678 58.456 107.575 58.1713 107.582C57.8867 107.59 57.6157 107.706 57.4143 107.907C57.2129 108.108 57.0964 108.379 57.089 108.664C57.0816 108.949 57.1837 109.225 57.3743 109.437L60.703 112.765V112.765Z" fill="#FFFDFF"/>
<path d="M86.1089 35.7033L151.466 40.2479C152.81 40.3466 153.9 41.2652 153.9 42.3005C153.9 43.3357 152.81 44.1237 151.466 44.0596L86.1089 41.1268C84.7649 41.0692 83.6746 39.7969 83.6746 38.2825C83.6746 36.7706 84.7649 35.6149 86.1089 35.7033ZM86.1089 45.5894L132.96 46.7246C134.306 46.7592 135.395 47.7317 135.395 48.8976C135.395 50.0636 134.306 51.0091 132.96 51.0091L86.1089 51.0117C84.7649 51.0117 83.6746 49.7855 83.6746 48.2724C83.6746 46.7592 84.7649 45.5574 86.1089 45.5894V45.5894Z" fill="#A6B6CC"/>
<path d="M86.1089 60.4173L101.323 59.7895C102.668 59.7332 103.757 60.8081 103.757 62.1906C103.757 63.5718 102.668 64.7633 101.323 64.8518L86.1089 65.8396C84.7649 65.9254 83.6746 64.7685 83.6746 63.2553C83.6746 61.7434 84.7649 60.4712 86.1089 60.4161V60.4173Z" fill="#D2DDEC"/>
<path d="M65.6641 58.4545C73.6245 58.2982 80.0781 51.997 80.0781 44.3838C80.0781 36.7693 73.6245 30.1747 65.6641 29.6571C57.7037 29.1484 51.25 35.4535 51.25 43.7355C51.25 52.0175 57.7037 58.6082 65.6641 58.4545Z" fill="#2C68E5"/>
<path d="M63.4218 48.1597C63.6691 48.4287 63.9932 48.5645 64.3161 48.5671C64.4844 48.5672 64.6509 48.5321 64.8049 48.4642C64.9589 48.3962 65.097 48.2969 65.2104 48.1725L71.5347 41.5484C72.028 41.0436 72.028 40.2005 71.5347 39.6624C71.0401 39.1243 70.2406 39.0935 69.746 39.5983L64.3161 45.2679L61.4166 42.0596C60.9221 41.5074 60.1226 41.4843 59.628 42.0122C59.1347 42.5414 59.1347 43.4203 59.628 43.9725L63.4218 48.1597Z" fill="white"/>
</svg>
